# xmcd
#
# Track frame offsets:
#	150
#	14715
#	30265
#	44189
#	60836
#	73855
#	85419
#	99098
#
# Disc length: 1499 seconds
#
# Revision: 0
# Processed by: cddbd v1.4PL0 Copyright (c) Steve Scherf et al.
# Submitted via: dBpowerAMP V4.0
#
DISCID=6205d908
DTITLE=Jeff Batson - Jeff Batson
DYEAR=1999
DGENRE=Country
TTITLE0=This Is More Like It
TTITLE1=The Lucky Ones
TTITLE2=Thats Gotta Be A Good Feeling
TTITLE3=I Still Look Up To You
TTITLE4=Light In The Storm
TTITLE5=On Again, Off Againa
TTITLE6=Voice of Reason
TTITLE7=Hometown Heros
EXTD=
EXTT0=
EXTT1=
EXTT2=
EXTT3=
EXTT4=
EXTT5=
EXTT6=
EXTT7=
PLAYORDER=
